# xmcd
#
# Track frame offsets: 
#        150
#        13468
#        26895
#        39276
#        50740
#        63847
#        74477
#        85882
#        99215
#        115380
#        126576
#        142789
#        157077
#        173347
#        187883
#        203685
#        219285
#
# Disc length: 3114 seconds
#
# Revision: 0
# Processed by: cddbd v1.5.2PL0 Copyright (c) Steve Scherf et al.
# Submitted via: ExactAudioCopy v0.99pb3
#
DISCID=eb0c2811
DTITLE=Mickey Gilley -  SEVENTEEN
DYEAR=2016
DGENRE=Easy Listening
TTITLE0=Room Full of Roses
TTITLE1=I Overlooked an Orchid
TTITLE2=City Lights
TTITLE3=Window Up Above
TTITLE4=Don't All The Girls Get Prettier At Closing Time
TTITLE5=Bring It On Home
TTITLE6=She's Pulling Me Back Again
TTITLE7=True Love Ways
TTITLE8=Stand By Me
TTITLE9=That's All That Matters To Me
TTITLE10=A Headache Tomorrow (Or A Heartache Tonight)
TTITLE11=You Don't Know Me
TTITLE12=Lonely Nights
TTITLE13=Put Your Dreams Away
TTITLE14=Talk To Me
TTITLE15=Fool For Your Love
TTITLE16=Paradise Tonight
EXTD=
EXTT0=
EXTT1=
EXTT2=
EXTT3=
EXTT4=
EXTT5=
EXTT6=
EXTT7=
EXTT8=
EXTT9=
EXTT10=
EXTT11=
EXTT12=
EXTT13=
EXTT14=
EXTT15=
EXTT16=
PLAYORDER=
